<?xml version="1.0" encoding="utf-8"?><svg xmlns="http://www.w3.org/2000/svg" xmlns:xlink="http://www.w3.org/1999/xlink"><symbol viewBox="0 0 1384 1024" id="approve"><path d="M1096.211 80.843L530.316 646.738 287.79 404.212c-53.894-53.894-161.685-53.894-215.579 0s-53.894 161.685 0 215.579l350.316 350.316c53.894 53.894 161.685 53.894 215.579 0l673.685-673.685c53.894-53.894 53.894-161.685 0-215.579-53.894-80.842-161.685-80.842-215.579 0z"/></symbol><symbol viewBox="0 0 1328 1024" id="arrow"><path d="M66.135 570.784h1028.533L745.76 898.691c-26.458 24.142-26.458 63.332 0 87.475 26.458 24.308 67.797 24.308 92.601 0l463.005-433.406c24.804-24.142 24.804-63.498 0-87.64L838.361 31.714c-11.575-12.072-29.765-18.189-46.301-18.189s-33.071 6.119-46.301 18.189c-26.458 24.142-26.458 63.332 0 87.475l348.908 327.741H66.134c-36.379 0-66.144 27.78-66.144 62.01s29.765 61.844 66.144 61.844z"/></symbol><symbol viewBox="0 0 6 8" id="arrow-long"><switch><g><path d="M2.6.4v6.2l-2-2.1c-.1-.2-.4-.2-.5 0-.1.2-.1.4 0 .6l2.6 2.8c.2.1.4.1.6 0l2.6-2.8c.1-.1.1-.2.1-.3 0-.1 0-.2-.1-.3-.1-.2-.4-.2-.5 0l-2 2.1V.4C3.4.2 3.2 0 3 0s-.4.2-.4.4z"/></g></switch></symbol><symbol viewBox="0 0 11.8 12" id="bone"><path d="M9.6 0H2.2C1 0 0 1 0 2.2v7.7C0 11 1 12 2.2 12h7.4c1.2 0 2.2-1 2.2-2.2V2.2c0-1.2-1-2.2-2.2-2.2zM2.5 1.8c.5 0 1 .4 1 1 0 .5-.4 1-1 1-.5 0-1-.4-1-1s.4-1 1-1zm.1 8.3c-.5 0-1-.4-1-1 0-.5.4-1 1-1 .5 0 1 .4 1 1s-.4 1-1 1zM6 7c-.5 0-1-.5-1-1s.4-1 1-1c.5 0 1 .4 1 1 0 .5-.5 1-1 1zm3.2-5.2c.5 0 1 .4 1 1 0 .5-.4 1-1 1-.5 0-1-.4-1-1s.5-1 1-1zm.2 8.3c-.5 0-1-.4-1-1 0-.5.4-1 1-1 .5 0 1 .4 1 1s-.5 1-1 1z"/></symbol><symbol id="btn-ar-left-bg" viewBox="0 0 144.054 31"><path fill-rule="evenodd" clip-rule="evenodd" stroke-miterlimit="10" d="M138.554 30.5h-121c-.371 0-.73-.043-1.078-.12a2.52 2.52 0 0 1-.709.114c-.644 0-1.244-.251-1.758-.712l-12.78-12.45A2.347 2.347 0 0 1 .5 15.613c0-.629.257-1.258.729-1.719l12.78-12.492c.543-.531 1.3-.746 2.024-.665.479-.153.99-.237 1.521-.237h121c2.762 0 5 2.239 5"/><style>svg path{transition:all,.2s}svg:hover path{stroke:#bebebe}svg:active path,svg:hover{stroke:#000}</style></symbol><symbol viewBox="0 0 144.054 31" id="btn-ar-left-bg--active"><path clip-rule="evenodd" d="M138.554 30.5h-121c-.371 0-.73-.043-1.078-.12a2.52 2.52 0 0 1-.709.114c-.644 0-1.244-.251-1.758-.712l-12.78-12.45A2.347 2.347 0 0 1 .5 15.613c0-.629.257-1.258.729-1.719l12.78-12.492c.543-.531 1.3-.746 2.024-.665.479-.153.99-.237 1.521-.237h121c2.762 0 5 2.239 5"/></symbol><symbol viewBox="0 0 144.054 31" id="btn-ar-left-bg--hover"><path clip-rule="evenodd" d="M138.554 30.5h-121c-.371 0-.73-.043-1.078-.12a2.52 2.52 0 0 1-.709.114c-.644 0-1.244-.251-1.758-.712l-12.78-12.45A2.347 2.347 0 0 1 .5 15.613c0-.629.257-1.258.729-1.719l12.78-12.492c.543-.531 1.3-.746 2.024-.665.479-.153.99-.237 1.521-.237h121c2.762 0 5 2.239 5"/></symbol><symbol viewBox="0 0 1775 1024" id="caret"><path d="M1766.866 160.728c0 19.852-19.852 59.558-39.705 79.41L952.912 994.535c-39.705 39.705-119.115 39.705-158.82 0L39.695 220.286c-39.705-39.705-39.705-119.115 0-158.82s119.115-39.705 158.82 0l694.839 694.839 694.839-694.839c39.705-39.705 119.115-39.705 158.82 0 0 39.705 19.852 59.558 19.852 99.263z"/></symbol><symbol viewBox="0 0 544 512" id="cart"><path d="M197.664 397.28c-24.256 0-44.32 19.52-44.32 43.2 0 24.32 20.064 43.2 44.32 43.2s44.32-19.52 44.32-43.2c0-24.32-20.064-43.2-44.32-43.2zm183.2 0c-24.224 0-44.32 19.52-44.32 43.2 0 24.32 20.096 43.2 44.32 43.2 24.256 0 44.32-19.52 44.32-43.2 0-24.32-20.064-43.2-44.32-43.2zm40.32-98.56H198.72l-29.568 40.32h286.912c6.496 0 12.416 6.4 12.416 12.16v16.64c0 5.76-5.92 11.52-12.416 11.52h-292.8c-81.536 0-34.848-64-34.848-64l31.872-40.96L104.16 68.64H40.672c-4.736 0-11.232-6.08-11.232-11.84V39.84c0-5.76 6.496-11.52 11.232-11.52h93.056l17.728 40.32 334.72 34.88c14.816 0 28.384 16 21.888 30.4l-65.6 151.04c-2.368 8-12.992 14.4-21.28 14.4z"/></symbol><symbol viewBox="0 0 12 12" id="discount"><switch><g><path d="M6 0C2.7 0 0 2.7 0 6s2.7 6 6 6 6-2.7 6-6-2.7-6-6-6zM4.3 3.1c.7 0 1.3.6 1.3 1.3 0 .6-.6 1.2-1.3 1.2-.7 0-1.2-.6-1.2-1.3 0-.7.5-1.2 1.2-1.2zm-.6 5.8c-.1 0-.2.1-.3.1-.1 0-.2 0-.3-.1-.1-.2-.1-.4.1-.6l5.1-5.1c.1-.1.4-.1.5 0s.1.4 0 .5L3.7 8.9zm4.1.2c-.7 0-1.3-.6-1.3-1.3 0-.7.6-1.3 1.3-1.3.7 0 1.3.6 1.3 1.3 0 .7-.6 1.3-1.3 1.3z"/></g></switch></symbol><symbol viewBox="0 0 12 14" id="gift"><path d="M.8 14h10.5V8H.8v6zM0 4.3v3h12v-3H0zm2.8-.9c.4.3 1 .4 1.9.4h2.5c.9 0 1.6-.1 1.9-.4.9-.6 1.2-1.8.6-2.6C9.5.3 8.9 0 8.3 0c-.5 0-.9.1-1.3.4-.4.3-.7.9-1 1.5-.2-.6-.6-1.2-1-1.5C4.6.1 4.2 0 3.8 0c-.7 0-1.2.3-1.6.8-.6.8-.3 2 .6 2.6zM7.5 1c.2-.1.5-.2.7-.2.4 0 .7.2.9.4.3.5.1 1.2-.4 1.5-.1.1-.5.3-1.5.3h-.7c.2-.8.6-1.7 1-2zm-4.6.2c.2-.3.5-.4.9-.4.2 0 .5.1.7.2.3.2.8 1.2 1 1.9-.2.1-.5.1-.7.1-1 0-1.3-.2-1.5-.2-.6-.4-.7-1.1-.4-1.6z"/></symbol><symbol viewBox="0 0 19 17" id="grid-compact"><path d="M0 2V0h19v2zm0 5V5h19v2zm0 5v-2h19v2zm0 5v-2h19v2z"/></symbol><symbol viewBox="0 0 18 17" id="grid-list"><path d="M5 3V0h13v3zm0 7V7h13v3zM0 3V0h3v3zm0 7V7h3v3zm0 7v-3h3v3zm5 0v-3h13v3z"/></symbol><symbol viewBox="0 0 17 17" id="grid-square"><path d="M10 17v-7h7v7zm0-10V0h7v7zM0 17v-7h7v7zM0 7V0h7v7z"/></symbol><symbol viewBox="0 0 1024 1024" id="map"><path d="M973.823 743.056h-46.187V558.195c0-50.993-41.429-92.39-92.365-92.39H558.182V280.944h46.179c25.408 0 46.187-20.82 46.187-46.195V49.888c0-25.375-20.78-46.195-46.187-46.195H419.637c-25.398 0-46.187 20.82-46.187 46.195v184.861c0 25.375 20.787 46.195 46.187 46.195h46.179v184.861H188.727c-50.936 0-92.365 41.397-92.365 92.39v184.861H50.175c-25.398 0-46.179 20.82-46.179 46.195v184.861c0 25.375 20.78 46.195 46.179 46.195h184.731c25.408 0 46.187-20.82 46.187-46.195V789.251c0-25.375-20.78-46.195-46.187-46.195h-46.179V558.195h277.089v184.861h-46.179c-25.398 0-46.187 20.82-46.187 46.195v184.861c0 25.375 20.787 46.195 46.187 46.195h184.724c25.408 0 46.187-20.82 46.187-46.195V789.251c0-25.375-20.78-46.195-46.187-46.195h-46.179V558.195h277.089v184.861h-46.17c-25.408 0-46.187 20.82-46.187 46.195v184.861c0 25.375 20.78 46.195 46.187 46.195h184.724c25.398 0 46.179-20.82 46.179-46.195V789.251c0-25.375-20.78-46.195-46.179-46.195z"/></symbol><symbol viewBox="0 0 12 14" id="moneybox"><path d="M3.5 0C1.6 0 0 1.6 0 3.5 0 5.5 1.6 7 3.5 7S7 5.4 7 3.5C7.1 1.6 5.5 0 3.5 0zm8 7.3H11c-.3-.8-.8-1.6-1.5-2.1v-.1c-.1-.5 0-1 .3-1.3.1-.2 0-.5-.3-.5-.7.1-1.1.3-1.4.5-.2.2-.4.5-.4.7-.5 1.9-2.2 3.3-4.1 3.3-1 0-1.9-.3-2.6-.9C.7 7.4.6 8 .6 8.6c0 .3 0 .7.1 1 .1.3.2.6.4.9.2.4.5.9.9 1.4.6.6.7 1.3.7 1.7v.1c0 .2.1.3.3.3h1.8c.2 0 .3-.1.3-.3v-.5h1.4v.4c0 .2.1.3.3.3h1.8c.3.1.4-.1.4-.2v-.5c0-.2 0-.8.6-1.3h.1c.6-.6 1.1-1.3 1.4-2.1h.4c.3 0 .6-.3.6-.6V7.9c-.1-.3-.3-.6-.6-.6zm-2.4.1c-.2 0-.4-.2-.4-.4 0-.3.2-.5.5-.5s.5.2.5.5c-.1.2-.3.4-.6.4z"/></symbol><symbol viewBox="0 0 2 10" id="more"><switch><g><path fill-rule="evenodd" d="M0 0v2h2V0H0zm0 6h2V4H0v2zm0 4h2V8H0v2z"/></g></switch></symbol><symbol viewBox="0 0 10 10" id="plus"><switch><g><path fill-rule="evenodd" d="M10 6H6v4H4V6H0V4h4V0h2v4h4v2z"/></g></switch></symbol><symbol viewBox="0 0 12 21.5" id="slider-arrow"><defs><filter id="sa" width="200" height="200" x="-50" y="-50"><feGaussianBlur result="SvgjsFeGaussianBlur1009Out" in="SourceGraphic"/></filter></defs><path d="M943.32 374.04l-8.65-8.54-1.67 1.65 8.65 8.54-8.26 8.16 1.68 1.65 9.93-9.81z" fill-opacity=".6" filter="url(#sa)" transform="translate(-933 -364)"/><path d="M10.32 9.04L1.67.5 0 2.15l8.65 8.54-8.26 8.16 1.68 1.65L12 10.69z"/></symbol><symbol viewBox="0 0 640 1024" id="slider-control"><path d="M89.6 437.76L550.4 0 640 84.48 179.2 522.24l440.32 417.28-89.6 84.48L0 522.24z"/></symbol><symbol viewBox="0 0 15 10" id="track"><path d="M11.7 7.3c-.8 0-1.4.6-1.4 1.4 0 .8.6 1.4 1.4 1.4.8 0 1.4-.6 1.4-1.4 0-.8-.6-1.4-1.4-1.4zm-.9-4.6V.9c0-.5-.4-.9-.9-.9h-9C.4 0 0 .4 0 .9v5c0 .5.4.9.9.9h.9c.4-.3.9-.5 1.4-.5 1.3 0 2.3 1 2.3 2.3h3.8c0-.9.6-1.7 1.4-2.1V2.7zm3.7.8c-.2-.4-.8-.8-1.4-.8h-1.9v3.7h.5c1.3 0 2.3 1 2.3 2.3.5 0 .9-.4.9-.9V4.5l-.4-1zM14.3 5h-2.1V3.2h.9c.3 0 .6.2.7.4l.5 1V5zm-11 2.3c-.8 0-1.4.6-1.4 1.4 0 .8.6 1.4 1.4 1.4.8 0 1.4-.6 1.4-1.4 0-.8-.6-1.4-1.4-1.4z"/></symbol></svg>