<svg xmlns="http://www.w3.org/2000/svg" width="42" height="35"><path d="M27.719 15.003l.009.011a1.317 1.317 0 0 0-.627-.999l-.007-.005a1.927 1.927 0 0 0-.458-.205 2.557 2.557 0 0 0-.491-.097l-.079-.007a2.92 2.92 0 0 0-.233-.01l-.038-.002h-3.149c.249-.233.561-.628.724-1.242.281-1.059-.33-2.047-.393-2.147l-.006-.008s-.754.191-1.373.734a3.838 3.838 0 0 0-.303-.528 4.665 4.665 0 0 0-2.091-1.685l-.365-.131c-.279-.087-.457-.111-.457-.111l-.002.005c-.01.021-.064.141-.222.562-.178.476-.548 1.909-.058 3.126a3.107 3.107 0 0 0 1.191 1.425H16.542c-.579 0-1.04.138-1.369.373l.002-.005c-.031.022-.06.046-.089.07l-.045.039c-.04.036-.076.073-.11.112l-.042.049a1.394 1.394 0 0 0-.092.132v-.002l-.001.004-.017.028a1.472 1.472 0 0 0-.07.144l-.008.019-.014.039a1.426 1.426 0 0 0-.044.149l-.005.02-.003.014c-.013.059-.02.121-.025.183l-.002.025-.001.034c-.002.059-.001.119.003.181l.001.019c.006.071.018.145.032.219l.006.03.007.028a1.995 1.995 0 0 0 .064.228c.027.077.06.156.096.235l.028.06c.038.08.08.161.127.242l.001.002.744 1.266 3.139 5.344.744 1.266a2.628 2.628 0 0 0 .653.763c.05.039.101.075.153.107l.036.021c.048.028.097.055.146.077l.024.011h-.004c.035.016.071.029.107.041.01.004.02.01.03.013l.023.006a.164.164 0 0 1 .011.003l.02.005c.042.012.084.023.127.03l.03.008.014.001a1.102 1.102 0 0 0 .16.013l.033.002h.02c.047-.001.095-.004.142-.01l.046-.006h.011l.028-.007c.025-.005.05-.009.075-.016a.96.96 0 0 0 .092-.025l.009-.002a.049.049 0 0 0 .011-.004c.013-.003.026-.01.04-.015.051-.018.101-.039.152-.063l.027-.014a1.94 1.94 0 0 0 .598-.477l-.003-.003a3.258 3.258 0 0 0 .328-.459l.744-1.266 3.138-5.343.744-1.266c.27-.459.386-.892.367-1.271-.002-.03-.008-.058-.012-.087z" fill="#fff"/><path d="M1.403 9.799l3.559-5.59h.648l-3.546 5.59zm2.814-1.44c0-.381.117-.704.35-.968.234-.264.574-.396 1.021-.396.408 0 .747.119 1.014.356.268.238.402.587.402 1.048 0 .449-.135.794-.406 1.037-.271.242-.606.363-1.005.363-.394 0-.722-.12-.983-.36-.262-.24-.393-.6-.393-1.08zM.009 5.573c0-.379.117-.701.351-.966.233-.266.572-.398 1.016-.398.408 0 .746.118 1.014.356s.402.587.402 1.048c0 .448-.135.794-.406 1.036-.271.243-.605.364-1.001.364-.394 0-.721-.119-.983-.358s-.393-.6-.393-1.082zm1.389-.916a.652.652 0 0 0-.495.21c-.131.14-.197.397-.197.771 0 .34.066.58.2.718a.654.654 0 0 0 .492.208c.202 0 .368-.07.5-.21.131-.14.197-.395.197-.767 0-.342-.066-.583-.2-.722a.662.662 0 0 0-.497-.208zM5.61 7.444a.659.659 0 0 0-.499.209c-.132.14-.197.397-.197.771 0 .338.066.577.199.717s.298.21.493.21c.204 0 .372-.07.504-.21.131-.14.197-.396.197-.767 0-.343-.066-.584-.2-.722a.658.658 0 0 0-.497-.208z" fill="#c772cc"/><path d="M39 16a1 1 0 1 1 0 2 1 1 0 0 1 0-2zM2 16a1 1 0 1 1 0 2 1 1 0 0 1 0-2zM21 0a1 1 0 1 1 0 2 1 1 0 0 1 0-2zM21 33a1 1 0 1 1 0 2 1 1 0 0 1 0-2z" fill="#b65dbb"/><path d="M33.004 31.999l5.085-7.987h.926l-5.066 7.987zm4.02-2.057c0-.545.167-1.006.501-1.383.334-.378.82-.566 1.458-.566.583 0 1.067.169 1.447.509.38.339.58.838.58 1.497 0 .64-.2 1.134-.58 1.481-.39.346-.87.519-1.441.519-.562 0-1.03-.171-1.404-.514-.374-.343-.561-.858-.561-1.543zm-6.011-3.981c0-.541.167-1.001.501-1.38.334-.379.818-.569 1.452-.569.583 0 1.066.17 1.449.509.382.34.574.839.574 1.497 0 .641-.194 1.135-.581 1.481-.386.347-.863.52-1.429.52-.563 0-1.031-.171-1.405-.512-.374-.341-.561-.856-.561-1.546zm1.985-1.308c-.284 0-.519.1-.707.3-.188.2-.283.567-.283 1.101 0 .486.096.828.286 1.026.19.199.425.298.704.298.287 0 .525-.1.713-.3.188-.2.282-.565.282-1.096 0-.489-.095-.833-.285-1.031a.945.945 0 0 0-.71-.298zm6.017 3.981a.94.94 0 0 0-.714.3c-.188.2-.282.567-.282 1.101 0 .482.095.823.286 1.023.19.2.424.3.703.3.292 0 .532-.1.72-.3.188-.2.282-.565.282-1.096 0-.489-.095-.833-.285-1.031a.944.944 0 0 0-.71-.297z" fill="#c772cc"/><path d="M5.277 32.987l-.707-.707 7.071-7.071.707.707z" fill="#b460b9"/><path d="M32.359 8.791l-.707-.707 7.071-7.071.707.707z" fill="#b35bb8"/></svg>