<svg id="SvgjsSvg1021" xmlns="http://www.w3.org/2000/svg" version="1.1" xmlns:xlink="http://www.w3.org/1999/xlink" xmlns:svgjs="http://svgjs.com/svgjs" width="36" height="30"><defs id="SvgjsDefs1022"></defs><path id="SvgjsPath1023" d="M982.726 394.128C982.726 394.128 976.521 394.14799999999997 974.864 394.154C974.642 394.155 974.4630000000001 393.975 974.4630000000001 393.753C974.465 393.21799999999996 974.4680000000001 392.277 974.47 391.74199999999996C974.471 391.52 974.652 391.33899999999994 974.874 391.33799999999997L979.919 391.32099999999997L972.661 384.06199999999995C972.505 383.90599999999995 972.506 383.65099999999995 972.6629999999999 383.49399999999997C973.0429999999999 383.114 973.7109999999999 382.44599999999997 974.0909999999999 382.06699999999995C974.2479999999999 381.90899999999993 974.5029999999999 381.90799999999996 974.6599999999999 382.06499999999994L981.9169999999998 389.32199999999995L981.9349999999998 384.27699999999993C981.9349999999998 384.05499999999995 982.1159999999999 383.8739999999999 982.3379999999999 383.87299999999993C982.8739999999998 383.8709999999999 983.8149999999998 383.86799999999994 984.3499999999998 383.86599999999993C984.5719999999998 383.86599999999993 984.7519999999998 384.0449999999999 984.7509999999997 384.2679999999999L984.7249999999998 391.8449999999999C984.7249999999998 391.8449999999999 984.7209999999998 393.0639999999999 984.7189999999998 393.7179999999999C984.7179999999998 393.9399999999999 984.5379999999998 394.1209999999999 984.3159999999998 394.1219999999999L982.7259999999998 394.1269999999999L982.7259999999998 394.1279999999999Z " fill="#ffffff" transform="matrix(1,0,0,1,-960,-372)"></path><path id="SvgjsPath1024" d="M983.603 378.389C983.603 378.389 981.159 378.397 980.507 378.399C980.419 378.399 980.348 378.329 980.3489999999999 378.241C980.3489999999999 378.03 980.3509999999999 377.65999999999997 980.3509999999999 377.449C980.3519999999999 377.362 980.4229999999999 377.29 980.5099999999999 377.29L982.4969999999998 377.283L979.6389999999999 374.425C979.5769999999999 374.363 979.5779999999999 374.26300000000003 979.6399999999999 374.201C979.7889999999999 374.05100000000004 980.0519999999999 373.788 980.2019999999999 373.639C980.2639999999999 373.576 980.3639999999999 373.576 980.4259999999999 373.63800000000003L983.2839999999999 376.49600000000004L983.2909999999998 374.509C983.2909999999998 374.422 983.3629999999998 374.35 983.4499999999998 374.35C983.6609999999998 374.34900000000005 984.0319999999998 374.348 984.2419999999998 374.34700000000004C984.3299999999998 374.34700000000004 984.4009999999998 374.41800000000006 984.3999999999999 374.50500000000005L984.3899999999999 377.49000000000007C984.3899999999999 377.49000000000007 984.3889999999999 377.9700000000001 984.3879999999999 378.2270000000001C984.3879999999999 378.3150000000001 984.3159999999999 378.3860000000001 984.2289999999999 378.3860000000001L983.603 378.38900000000007L983.603 378.38900000000007Z " fill="#febb8a" transform="matrix(1,0,0,1,-960,-372)"></path><path id="SvgjsPath1025" d="M966.004 387.986C966.004 387.986 962.9490000000001 387.996 962.133 387.99899999999997C962.024 387.99899999999997 961.9350000000001 387.91099999999994 961.936 387.80199999999996C961.937 387.53799999999995 961.938 387.075 961.9390000000001 386.811C961.94 386.702 962.0290000000001 386.613 962.138 386.61199999999997L964.6220000000001 386.604L961.0490000000001 383.031C960.9720000000001 382.954 960.9720000000001 382.82800000000003 961.0500000000001 382.75100000000003C961.2370000000001 382.564 961.565 382.235 961.7520000000001 382.04800000000006C961.83 381.97100000000006 961.955 381.9700000000001 962.032 382.0470000000001L965.606 385.62000000000006L965.614 383.1360000000001C965.614 383.0270000000001 965.7030000000001 382.9380000000001 965.813 382.9380000000001C966.076 382.9370000000001 966.54 382.9350000000001 966.803 382.9340000000001C966.912 382.9340000000001 967.001 383.0220000000001 967 383.13200000000006L966.988 386.8620000000001C966.988 386.8620000000001 966.9860000000001 387.4620000000001 966.985 387.7840000000001C966.984 387.8940000000001 966.896 387.9830000000001 966.7860000000001 387.9830000000001L966.004 387.9860000000001L966.004 387.9860000000001Z " fill="#febb8a" transform="matrix(1,0,0,1,-960,-372)"></path><path id="SvgjsPath1026" d="M994.336 396.99C994.336 396.99 992.299 396.997 991.755 396.999C991.683 396.999 991.624 396.94 991.624 396.86800000000005C991.624 396.69200000000006 991.626 396.38300000000004 991.626 396.208C991.626 396.13500000000005 991.6859999999999 396.07500000000005 991.759 396.07500000000005L993.415 396.0690000000001L991.0319999999999 393.68700000000007C990.9809999999999 393.6360000000001 990.9809999999999 393.5520000000001 991.0329999999999 393.50000000000006C991.1579999999999 393.37600000000003 991.377 393.15700000000004 991.502 393.03200000000004C991.553 392.98 991.637 392.98 991.688 393.03100000000006L994.0699999999999 395.41400000000004L994.0759999999999 393.75700000000006C994.0759999999999 393.68500000000006 994.1359999999999 393.62500000000006 994.209 393.62500000000006C994.3839999999999 393.6240000000001 994.693 393.62300000000005 994.8689999999999 393.62300000000005C994.9419999999999 393.62300000000005 995.0009999999999 393.68100000000004 994.9999999999999 393.754L994.9919999999998 396.24100000000004C994.9919999999998 396.24100000000004 994.9909999999999 396.64200000000005 994.9899999999999 396.85600000000005C994.9899999999999 396.92900000000003 994.93 396.98800000000006 994.8569999999999 396.98900000000003L994.3359999999999 396.99L994.3359999999999 396.99Z " fill="#febb8a" transform="matrix(1,0,0,1,-960,-372)"></path><path id="SvgjsPath1027" d="M968.336 398.991C968.336 398.991 966.299 398.99699999999996 965.755 398.99899999999997C965.683 398.99899999999997 965.624 398.941 965.624 398.868C965.624 398.692 965.626 398.383 965.626 398.20799999999997C965.626 398.135 965.6859999999999 398.075 965.759 398.075L967.415 398.069L965.033 395.687C964.981 395.636 964.981 395.552 965.033 395.5C965.158 395.376 965.3770000000001 395.157 965.5020000000001 395.032C965.5530000000001 394.981 965.6370000000001 394.97999999999996 965.6880000000001 395.032L968.07 397.414L968.076 395.758C968.076 395.685 968.136 395.625 968.208 395.625C968.384 395.624 968.693 395.623 968.8689999999999 395.623C968.9419999999999 395.623 969.0009999999999 395.682 968.9999999999999 395.75399999999996L968.9919999999998 398.241C968.9919999999998 398.241 968.9909999999999 398.642 968.9899999999999 398.856C968.9899999999999 398.929 968.93 398.988 968.8569999999999 398.989L968.3359999999999 398.991L968.3359999999999 398.991Z " fill="#febb8a" transform="matrix(1,0,0,1,-960,-372)"></path><path id="SvgjsPath1028" d="M994.235 385.595C994.235 385.595 993.114 385.59900000000005 992.815 385.6C992.7750000000001 385.6 992.743 385.567 992.743 385.52700000000004C992.743 385.43100000000004 992.744 385.261 992.744 385.16400000000004C992.745 385.124 992.777 385.09100000000007 992.817 385.09100000000007L993.728 385.0880000000001L992.418 383.7780000000001C992.39 383.75000000000006 992.39 383.70400000000006 992.418 383.67500000000007C992.487 383.6070000000001 992.607 383.48600000000005 992.676 383.41800000000006C992.7040000000001 383.38900000000007 992.75 383.38900000000007 992.779 383.4170000000001L994.0889999999999 384.7270000000001L994.092 383.81700000000006C994.092 383.77700000000004 994.125 383.7440000000001 994.165 383.7440000000001C994.261 383.7430000000001 994.4309999999999 383.7430000000001 994.528 383.7430000000001C994.568 383.74200000000013 994.6 383.7750000000001 994.6 383.8150000000001L994.595 385.1830000000001C994.595 385.1830000000001 994.595 385.40300000000013 994.594 385.52100000000013C994.594 385.56100000000015 994.562 385.5940000000001 994.522 385.5940000000001L994.235 385.5950000000001L994.235 385.5950000000001Z " fill="#febb8a" transform="matrix(1,0,0,1,-960,-372)"></path><path id="SvgjsPath1029" d="M982.235 401.595C982.235 401.595 981.115 401.59900000000005 980.816 401.59900000000005C980.775 401.6 980.743 401.56700000000006 980.743 401.52700000000004C980.743 401.43100000000004 980.744 401.261 980.744 401.16400000000004C980.744 401.124 980.777 401.09200000000004 980.817 401.09100000000007L981.728 401.0880000000001L980.418 399.7780000000001C980.39 399.75000000000006 980.39 399.70400000000006 980.418 399.67500000000007C980.487 399.6070000000001 980.607 399.48600000000005 980.676 399.41800000000006C980.7040000000001 399.38900000000007 980.75 399.38900000000007 980.779 399.4170000000001L982.0889999999999 400.7270000000001L982.092 399.81700000000006C982.092 399.77700000000004 982.125 399.7440000000001 982.165 399.7440000000001C982.261 399.7430000000001 982.4309999999999 399.7430000000001 982.528 399.7430000000001C982.568 399.74200000000013 982.6 399.7750000000001 982.6 399.8150000000001L982.596 401.1830000000001C982.596 401.1830000000001 982.595 401.40300000000013 982.594 401.52100000000013C982.594 401.56100000000015 982.562 401.5940000000001 982.522 401.5940000000001L982.235 401.5950000000001L982.235 401.5950000000001Z " fill="#febb8a" transform="matrix(1,0,0,1,-960,-372)"></path><path id="SvgjsPath1030" d="M971.235 374.595C971.235 374.595 970.115 374.598 969.816 374.6C969.775 374.6 969.743 374.567 969.743 374.52700000000004C969.743 374.43100000000004 969.744 374.261 969.744 374.16400000000004C969.744 374.124 969.777 374.09100000000007 969.817 374.09100000000007L970.728 374.0880000000001L969.418 372.7780000000001C969.39 372.75000000000006 969.39 372.70400000000006 969.418 372.67500000000007C969.487 372.6070000000001 969.607 372.48600000000005 969.676 372.41800000000006C969.7040000000001 372.38900000000007 969.75 372.38900000000007 969.779 372.4170000000001L971.0889999999999 373.7270000000001L971.092 372.81700000000006C971.092 372.77700000000004 971.125 372.7440000000001 971.165 372.7440000000001C971.261 372.7430000000001 971.4309999999999 372.7430000000001 971.528 372.7430000000001C971.568 372.74200000000013 971.6 372.7750000000001 971.6 372.8150000000001L971.596 374.1830000000001C971.596 374.1830000000001 971.595 374.40300000000013 971.594 374.52100000000013C971.594 374.56100000000015 971.562 374.5940000000001 971.522 374.5940000000001L971.235 374.5950000000001L971.235 374.5950000000001Z " fill="#febb8a" transform="matrix(1,0,0,1,-960,-372)"></path></svg>