<svg xmlns="http://www.w3.org/2000/svg" width="35" height="32"><path d="M22.159 22.491c-.354 0-1.172-.384-4.158-2.011-3.902 2.28-4.172 2.094-4.456 1.894-.272-.188-.679-.472.517-4.641-3.275-2.911-3.275-3.021-3.275-3.28 0-.477.462-.549 1.161-.656.39-.06.931-.132 1.608-.213.797-.096 1.602-.184 2.022-.229 1.873-4.034 2.053-4.032 2.432-4.033.38.001.558.001 2.417 4.041.42.047 1.224.138 2.022.237.676.084 1.217.158 1.606.219.723.112 1.159.181 1.159.655 0 .262 0 .364-3.303 3.286.927 4.346.837 4.408.519 4.628-.082.057-.149.103-.271.103z" fill="#fff"/><path d="M5.155 9.829c-.098 0-.325-.107-1.155-.558-1.084.633-1.158.581-1.238.526-.075-.053-.188-.132.144-1.289-.91-.809-.91-.84-.91-.912 0-.132.129-.152.323-.182.108-.017.258-.037.447-.059.221-.027.444-.051.561-.064.521-1.12.571-1.12.676-1.12.105 0 .155 0 .671 1.123.117.013.34.038.562.065.188.024.338.044.446.061.201.031.322.05.322.182 0 .073 0 .101-.918.913.258 1.207.233 1.224.145 1.285-.023.016-.042.029-.076.029zM31.155 28.829c-.098 0-.325-.106-1.155-.558-1.084.633-1.158.581-1.238.526-.075-.053-.188-.132.144-1.289-.91-.809-.91-.84-.91-.911 0-.133.129-.153.323-.183a31.564 31.564 0 0 1 1.008-.122c.521-1.121.57-1.121.676-1.121.105 0 .155 0 .671 1.123.117.013.34.038.562.065.188.024.338.044.446.061.201.031.322.051.322.182 0 .073 0 .101-.918.913.258 1.207.233 1.224.144 1.286-.022.015-.041.028-.075.028zM17.693 31.097c-.059 0-.195-.064-.693-.335-.65.38-.695.349-.742.316-.046-.031-.114-.079.086-.773-.546-.486-.546-.504-.546-.547 0-.08.077-.092.193-.11.065-.01.155-.021.268-.035l.337-.038c.313-.672.343-.672.406-.672s.093 0 .403.673c.07.008.204.023.336.04.113.014.203.026.268.036.121.019.193.03.193.109 0 .044 0 .061-.55.548.154.724.139.735.086.771a.065.065 0 0 1-.045.017zM33.693 16.098c-.059 0-.195-.065-.693-.336-.65.38-.695.349-.743.316-.045-.031-.113-.079.087-.773-.546-.486-.546-.504-.546-.547 0-.08.077-.092.193-.11a19.945 19.945 0 0 1 .605-.073c.313-.673.342-.672.406-.673.063.001.093.001.402.674l.337.039c.113.015.203.027.268.037.121.019.193.03.193.109 0 .044 0 .061-.55.548.154.724.139.735.086.771-.013.01-.025.018-.045.018zM14.693 3.098c-.059 0-.195-.064-.693-.336-.65.38-.695.349-.743.316-.045-.031-.113-.079.087-.774-.546-.485-.546-.503-.546-.546 0-.08.077-.092.193-.11a19.945 19.945 0 0 1 .605-.073c.313-.673.342-.672.406-.673.063.001.093.001.402.674.071.008.205.023.337.04.113.014.203.026.268.036.121.019.193.03.193.109 0 .044 0 .061-.55.548.154.724.139.735.086.771-.013.01-.024.018-.045.018zM4.944 25.786c-.123 0-.407-.133-1.444-.698-1.354.792-1.448.727-1.547.658-.094-.066-.236-.164.18-1.612C.996 23.124.996 23.085.996 22.996c0-.166.16-.191.403-.228.135-.021.323-.046.558-.074.277-.034.556-.064.702-.08.651-1.4.713-1.4.844-1.4.132 0 .194 0 .84 1.403.146.016.425.048.702.082.235.029.422.055.557.076.251.039.403.063.403.228 0 .091 0 .126-1.147 1.141.322 1.509.291 1.53.18 1.607-.028.019-.052.035-.094.035zM29.944 6.786c-.123 0-.407-.133-1.444-.698-1.354.792-1.448.727-1.547.658-.094-.066-.236-.164.18-1.612-1.137-1.01-1.137-1.049-1.137-1.139 0-.165.16-.19.403-.228.135-.02.323-.045.558-.074.277-.033.556-.063.702-.079.651-1.401.713-1.4.844-1.4.132 0 .194 0 .84 1.403.146.016.425.048.702.082.235.029.422.055.557.076.251.039.403.063.403.228 0 .091 0 .126-1.147 1.14.322 1.51.291 1.531.18 1.608-.028.019-.052.035-.094.035z" fill="#ffb5c1"/></svg>