<svg id="SvgjsSvg1031" xmlns="http://www.w3.org/2000/svg" version="1.1" xmlns:xlink="http://www.w3.org/1999/xlink" xmlns:svgjs="http://svgjs.com/svgjs" width="42" height="35"><defs id="SvgjsDefs1032"></defs><path id="SvgjsPath1033" d="M987.719 327.003C987.7220000000001 327.007 987.725 327.01 987.7280000000001 327.014C987.6840000000001 326.595 987.4670000000001 326.248 987.1010000000001 326.015C987.0990000000002 326.013 987.0960000000001 326.012 987.0940000000002 326.01C986.9700000000001 325.933 986.8290000000002 325.867 986.6720000000001 325.816C986.6600000000002 325.81199999999995 986.6480000000001 325.808 986.6360000000002 325.80499999999995C986.4860000000002 325.75899999999996 986.3220000000002 325.72599999999994 986.1450000000002 325.70799999999997C986.1190000000003 325.705 986.0920000000002 325.703 986.0660000000003 325.70099999999996C985.9910000000002 325.695 985.9130000000002 325.691 985.8330000000003 325.691C985.8200000000003 325.691 985.8080000000003 325.68899999999996 985.7950000000003 325.68899999999996L984.3070000000002 325.68899999999996C983.8240000000003 325.68899999999996 983.2530000000003 325.68899999999996 982.6460000000003 325.68899999999996C982.8950000000003 325.45599999999996 983.2070000000003 325.061 983.3700000000003 324.44699999999995C983.6510000000003 323.3879999999999 983.0400000000003 322.3999999999999 982.9770000000003 322.29999999999995C982.9730000000003 322.29499999999996 982.9710000000003 322.292 982.9710000000003 322.292C982.9710000000003 322.292 982.2170000000003 322.48299999999995 981.5980000000003 323.02599999999995C981.5160000000003 322.85299999999995 981.4170000000003 322.67599999999993 981.2950000000003 322.49799999999993C980.6460000000003 321.5519999999999 979.8130000000003 321.06199999999995 979.2040000000003 320.81299999999993L978.8390000000003 320.68199999999996C978.5600000000003 320.59499999999997 978.3820000000003 320.57099999999997 978.3820000000003 320.57099999999997C978.3820000000003 320.57099999999997 978.3810000000003 320.573 978.3800000000003 320.57599999999996C978.3700000000003 320.597 978.3160000000004 320.717 978.1580000000004 321.138C977.9800000000004 321.614 977.6100000000004 323.04699999999997 978.1000000000004 324.26399999999995C978.3980000000004 324.99999999999994 978.9220000000004 325.448 979.2910000000004 325.68899999999996C978.8340000000004 325.68899999999996 978.4050000000004 325.68899999999996 978.0300000000004 325.68899999999996L976.5420000000004 325.68899999999996C975.9630000000004 325.68899999999996 975.5020000000004 325.82699999999994 975.1730000000003 326.06199999999995C975.1740000000003 326.05999999999995 975.1740000000003 326.05799999999994 975.1750000000003 326.05699999999996C975.1440000000003 326.07899999999995 975.1150000000004 326.10299999999995 975.0860000000002 326.12699999999995C975.0710000000003 326.13999999999993 975.0550000000003 326.15299999999996 975.0410000000003 326.16599999999994C975.0010000000003 326.20199999999994 974.9650000000003 326.2389999999999 974.9310000000003 326.27799999999996C974.9170000000003 326.294 974.9030000000002 326.30999999999995 974.8890000000002 326.32699999999994C974.8570000000002 326.3689999999999 974.8270000000002 326.40999999999997 974.8000000000002 326.4549999999999C974.7990000000002 326.45699999999994 974.7980000000002 326.4579999999999 974.7970000000001 326.45899999999995C974.7970000000001 326.45799999999997 974.7970000000001 326.45799999999997 974.7970000000001 326.45699999999994C974.7970000000001 326.4579999999999 974.7960000000002 326.4599999999999 974.7960000000002 326.46099999999996C974.7900000000002 326.46999999999997 974.7850000000002 326.4789999999999 974.7790000000001 326.489C974.7530000000002 326.53499999999997 974.7300000000001 326.584 974.7090000000001 326.633C974.706 326.64 974.7030000000001 326.64599999999996 974.701 326.652C974.696 326.664 974.692 326.678 974.687 326.691C974.67 326.739 974.655 326.789 974.643 326.84C974.6410000000001 326.847 974.639 326.85299999999995 974.638 326.85999999999996L974.638 326.85999999999996C974.6370000000001 326.86499999999995 974.6360000000001 326.86899999999997 974.635 326.87399999999997C974.622 326.933 974.615 326.99499999999995 974.61 327.05699999999996C974.61 327.066 974.6080000000001 327.073 974.6080000000001 327.08199999999994C974.6070000000001 327.09299999999996 974.6080000000001 327.10499999999996 974.6070000000001 327.11599999999993C974.6050000000001 327.17499999999995 974.6060000000001 327.23499999999996 974.6100000000001 327.2969999999999C974.6110000000001 327.3029999999999 974.6100000000001 327.3089999999999 974.6110000000001 327.3159999999999C974.6170000000001 327.38699999999994 974.6290000000001 327.4609999999999 974.6430000000001 327.5349999999999C974.6450000000001 327.5449999999999 974.6470000000002 327.5549999999999 974.6490000000001 327.5649999999999C974.6510000000001 327.5749999999999 974.6540000000001 327.5839999999999 974.6560000000001 327.5929999999999C974.672 327.6629999999999 974.691 327.7329999999999 974.716 327.8049999999999C974.718 327.8099999999999 974.719 327.8149999999999 974.72 327.8209999999999C974.7470000000001 327.8979999999999 974.78 327.9769999999999 974.816 328.0559999999999C974.825 328.0759999999999 974.8340000000001 328.09599999999995 974.844 328.11599999999993C974.8820000000001 328.1959999999999 974.9240000000001 328.27699999999993 974.971 328.35799999999995L974.972 328.35999999999996L975.716 329.626C976.5790000000001 331.096 977.992 333.5 978.855 334.96999999999997L979.599 336.236C979.787 336.557 980.003 336.803 980.2330000000001 336.984C980.239 336.989 980.245 336.99399999999997 980.2520000000001 336.99899999999997C980.302 337.03799999999995 980.3530000000001 337.07399999999996 980.4050000000001 337.106C980.417 337.113 980.4290000000001 337.12 980.441 337.127C980.489 337.15500000000003 980.538 337.182 980.587 337.204C980.595 337.208 980.603 337.211 980.611 337.21500000000003C980.61 337.21500000000003 980.608 337.21500000000003 980.607 337.21500000000003C980.6419999999999 337.23100000000005 980.678 337.244 980.7139999999999 337.25600000000003C980.7239999999999 337.26000000000005 980.7339999999999 337.266 980.7439999999999 337.269C980.7509999999999 337.271 980.7589999999999 337.272 980.7669999999999 337.275C980.771 337.27599999999995 980.775 337.277 980.7779999999999 337.27799999999996C980.7849999999999 337.28 980.7919999999999 337.28099999999995 980.7979999999999 337.28299999999996C980.8399999999999 337.29499999999996 980.8819999999998 337.306 980.9249999999998 337.31299999999993C980.9349999999998 337.31499999999994 980.9449999999998 337.3189999999999 980.9549999999998 337.3209999999999C980.9599999999998 337.3209999999999 980.9639999999998 337.3209999999999 980.9689999999998 337.3219999999999C980.9759999999998 337.32299999999987 980.9829999999998 337.32299999999987 980.9899999999998 337.32299999999987C981.0369999999998 337.32999999999987 981.0829999999997 337.3339999999999 981.1289999999998 337.33499999999987C981.1399999999998 337.33499999999987 981.1519999999998 337.3369999999999 981.1619999999998 337.3369999999999C981.1689999999998 337.3369999999999 981.1759999999998 337.3369999999999 981.1819999999998 337.3369999999999C981.2289999999998 337.3359999999999 981.2769999999998 337.33299999999986 981.3239999999998 337.3269999999999C981.3389999999998 337.3259999999999 981.3549999999998 337.32299999999987 981.3699999999999 337.3209999999999C981.3739999999999 337.3209999999999 981.3779999999999 337.3209999999999 981.3809999999999 337.3209999999999C981.3909999999998 337.3189999999999 981.3999999999999 337.3159999999999 981.4089999999999 337.3139999999999C981.4339999999999 337.3089999999999 981.4589999999998 337.3049999999999 981.4839999999999 337.2979999999999C981.5149999999999 337.2909999999999 981.5459999999999 337.2829999999999 981.5759999999999 337.2729999999999C981.579 337.27199999999993 981.5819999999999 337.27199999999993 981.5849999999999 337.2709999999999C981.5889999999999 337.2699999999999 981.5919999999999 337.2689999999999 981.5959999999999 337.2669999999999C981.6089999999999 337.2639999999999 981.6219999999998 337.2569999999999 981.6359999999999 337.2519999999999C981.6869999999999 337.2339999999999 981.7369999999999 337.2129999999999 981.7879999999999 337.1889999999999C981.7969999999999 337.1839999999999 981.8059999999999 337.1789999999999 981.8149999999999 337.1749999999999C981.8749999999999 337.1439999999999 981.935 337.1089999999999 981.9939999999999 337.0699999999999C981.9999999999999 337.0649999999999 982.0059999999999 337.06099999999986 982.012 337.0579999999999C982.151 336.9609999999999 982.286 336.8439999999999 982.4129999999999 336.69799999999987C982.4119999999999 336.6969999999999 982.411 336.69599999999986 982.4099999999999 336.6949999999999C982.4579999999999 336.6389999999999 982.5059999999999 336.5789999999999 982.5519999999999 336.5169999999999C982.5639999999999 336.50099999999986 982.5749999999999 336.4849999999999 982.5859999999999 336.4679999999999C982.6379999999999 336.3959999999999 982.6889999999999 336.3189999999999 982.7379999999999 336.2359999999999L983.482 334.96999999999986C984.345 333.50099999999986 985.757 331.09699999999987 986.62 329.62699999999984L987.364 328.3609999999998C987.634 327.9019999999998 987.75 327.4689999999998 987.731 327.0899999999998C987.729 327.05999999999983 987.723 327.0319999999998 987.719 327.0029999999998Z " fill="#ffffff" transform="matrix(1,0,0,1,-960,-312)"></path><path id="SvgjsPath1034" d="M961.403 321.799L964.962 316.209L965.61 316.209L962.064 321.799ZM964.217 320.359C964.217 319.978 964.334 319.655 964.567 319.39099999999996C964.801 319.12699999999995 965.141 318.99499999999995 965.588 318.99499999999995C965.996 318.99499999999995 966.3349999999999 319.114 966.602 319.35099999999994C966.87 319.58899999999994 967.004 319.93799999999993 967.004 320.39899999999994C967.004 320.84799999999996 966.869 321.1929999999999 966.5980000000001 321.4359999999999C966.3270000000001 321.67799999999994 965.9920000000001 321.7989999999999 965.5930000000001 321.7989999999999C965.1990000000001 321.7989999999999 964.8710000000001 321.6789999999999 964.6100000000001 321.4389999999999C964.3480000000002 321.1989999999999 964.2170000000001 320.8389999999999 964.2170000000001 320.3589999999999ZM960.009 317.573C960.009 317.19399999999996 960.126 316.87199999999996 960.36 316.60699999999997C960.593 316.34099999999995 960.932 316.20899999999995 961.376 316.20899999999995C961.784 316.20899999999995 962.122 316.32699999999994 962.39 316.56499999999994C962.658 316.80299999999994 962.792 317.15199999999993 962.792 317.61299999999994C962.792 318.0609999999999 962.657 318.4069999999999 962.3860000000001 318.64899999999994C962.1150000000001 318.89199999999994 961.7810000000001 319.0129999999999 961.3850000000001 319.0129999999999C960.9910000000001 319.0129999999999 960.6640000000001 318.8939999999999 960.4020000000002 318.6549999999999C960.1400000000002 318.41599999999994 960.0090000000001 318.0549999999999 960.0090000000001 317.5729999999999ZM961.398 316.657C961.2 316.657 961.035 316.727 960.903 316.86699999999996C960.772 317.00699999999995 960.706 317.26399999999995 960.706 317.638C960.706 317.97799999999995 960.772 318.21799999999996 960.9060000000001 318.356C961.0390000000001 318.495 961.2030000000001 318.564 961.398 318.564C961.6 318.564 961.7660000000001 318.494 961.898 318.35400000000004C962.029 318.21400000000006 962.095 317.95900000000006 962.095 317.58700000000005C962.095 317.24500000000006 962.029 317.004 961.895 316.86500000000007C961.762 316.7270000000001 961.597 316.65700000000004 961.398 316.65700000000004ZM965.61 319.444C965.409 319.444 965.243 319.514 965.111 319.653C964.979 319.793 964.914 320.05 964.914 320.42400000000004C964.914 320.76200000000006 964.98 321.00100000000003 965.1129999999999 321.141C965.246 321.281 965.411 321.351 965.606 321.351C965.81 321.351 965.978 321.281 966.11 321.141C966.241 321.00100000000003 966.307 320.745 966.307 320.374C966.307 320.031 966.241 319.79 966.107 319.65200000000004C965.9739999999999 319.51300000000003 965.809 319.444 965.61 319.444Z " fill="#c772cc" transform="matrix(1,0,0,1,-960,-312)"></path><path id="SvgjsPath1035" d="M999 328C999.552 328 1000 328.448 1000 329C1000 329.552 999.552 330 999 330C998.448 330 998 329.552 998 329C998 328.448 998.448 328 999 328Z " fill="#b65dbb" transform="matrix(1,0,0,1,-960,-312)"></path><path id="SvgjsPath1036" d="M962 328C962.552 328 963 328.448 963 329C963 329.552 962.552 330 962 330C961.448 330 961 329.552 961 329C961 328.448 961.448 328 962 328Z " fill="#b65dbb" transform="matrix(1,0,0,1,-960,-312)"></path><path id="SvgjsPath1037" d="M981 312C981.552 312 982 312.448 982 313C982 313.552 981.552 314 981 314C980.448 314 980 313.552 980 313C980 312.448 980.448 312 981 312Z " fill="#b65dbb" transform="matrix(1,0,0,1,-960,-312)"></path><path id="SvgjsPath1038" d="M981 345C981.552 345 982 345.448 982 346C982 346.552 981.552 347 981 347C980.448 347 980 346.552 980 346C980 345.448 980.448 345 981 345Z " fill="#b65dbb" transform="matrix(1,0,0,1,-960,-312)"></path><path id="SvgjsPath1039" d="M993.004 343.999L998.089 336.012L999.0150000000001 336.012L993.9490000000001 343.999ZM997.024 341.942C997.024 341.397 997.191 340.93600000000004 997.525 340.559C997.8589999999999 340.18100000000004 998.345 339.99300000000005 998.983 339.99300000000005C999.5659999999999 339.99300000000005 1000.05 340.16200000000003 1000.43 340.50200000000007C1000.81 340.84100000000007 1001.01 341.3400000000001 1001.01 341.9990000000001C1001.01 342.63900000000007 1000.81 343.1330000000001 1000.43 343.4800000000001C1000.04 343.8260000000001 999.56 343.9990000000001 998.9889999999999 343.9990000000001C998.4269999999999 343.9990000000001 997.959 343.8280000000001 997.5849999999999 343.48500000000007C997.2109999999999 343.14200000000005 997.0239999999999 342.62700000000007 997.0239999999999 341.94200000000006ZM991.013 337.961C991.013 337.42 991.1800000000001 336.96000000000004 991.514 336.581C991.848 336.202 992.332 336.012 992.966 336.012C993.549 336.012 994.032 336.182 994.415 336.521C994.7969999999999 336.861 994.9889999999999 337.36 994.9889999999999 338.01800000000003C994.9889999999999 338.65900000000005 994.795 339.153 994.4079999999999 339.499C994.0219999999999 339.846 993.5449999999998 340.019 992.9789999999999 340.019C992.4159999999999 340.019 991.948 339.848 991.574 339.507C991.1999999999999 339.166 991.0129999999999 338.651 991.0129999999999 337.961ZM992.998 336.653C992.714 336.653 992.479 336.75300000000004 992.291 336.95300000000003C992.1030000000001 337.153 992.008 337.52000000000004 992.008 338.05400000000003C992.008 338.54 992.104 338.882 992.294 339.08000000000004C992.484 339.27900000000005 992.7189999999999 339.37800000000004 992.9979999999999 339.37800000000004C993.285 339.37800000000004 993.5229999999999 339.278 993.7109999999999 339.07800000000003C993.8989999999999 338.87800000000004 993.9929999999999 338.51300000000003 993.9929999999999 337.982C993.9929999999999 337.49300000000005 993.8979999999999 337.149 993.708 336.951C993.5179999999999 336.75300000000004 993.281 336.653 992.9979999999999 336.653ZM999.015 340.634C998.727 340.634 998.49 340.73400000000004 998.3009999999999 340.934C998.1129999999999 341.134 998.0189999999999 341.50100000000003 998.0189999999999 342.035C998.0189999999999 342.51700000000005 998.1139999999999 342.858 998.3049999999998 343.05800000000005C998.4949999999999 343.25800000000004 998.7289999999998 343.35800000000006 999.0079999999998 343.35800000000006C999.2999999999998 343.35800000000006 999.5399999999998 343.25800000000004 999.7279999999998 343.05800000000005C999.9159999999998 342.85800000000006 1000.0099999999999 342.49300000000005 1000.0099999999999 341.96200000000005C1000.0099999999999 341.47300000000007 999.9149999999998 341.129 999.7249999999999 340.93100000000004C999.5349999999999 340.73300000000006 999.2979999999999 340.634 999.0149999999999 340.634Z " fill="#c772cc" transform="matrix(1,0,0,1,-960,-312)"></path><path id="SvgjsPath1040" d="M965.277 344.987L964.57 344.28000000000003L971.6410000000001 337.209L972.3480000000001 337.916Z " fill="#b460b9" transform="matrix(1,0,0,1,-960,-312)"></path><path id="SvgjsPath1041" d="M992.359 320.791L991.652 320.084L998.7230000000001 313.013L999.4300000000001 313.71999999999997Z " fill="#b35bb8" transform="matrix(1,0,0,1,-960,-312)"></path></svg>