<svg id="SvgjsSvg1011" xmlns="http://www.w3.org/2000/svg" version="1.1" xmlns:xlink="http://www.w3.org/1999/xlink" xmlns:svgjs="http://svgjs.com/svgjs" width="35" height="32"><defs id="SvgjsDefs1012"></defs><path id="SvgjsPath1013" d="M985.159 278.491C984.805 278.491 983.987 278.10699999999997 981.001 276.47999999999996C977.0989999999999 278.75999999999993 976.829 278.57399999999996 976.545 278.37399999999997L976.545 278.37399999999997C976.2729999999999 278.186 975.866 277.902 977.062 273.73299999999995C973.787 270.82199999999995 973.787 270.71199999999993 973.787 270.453C973.787 269.976 974.249 269.904 974.948 269.79699999999997C975.338 269.73699999999997 975.879 269.66499999999996 976.5559999999999 269.58399999999995C977.353 269.48799999999994 978.1579999999999 269.3999999999999 978.578 269.35499999999996C980.451 265.32099999999997 980.631 265.323 981.01 265.32199999999995C981.39 265.3229999999999 981.568 265.3229999999999 983.427 269.36299999999994C983.847 269.40999999999997 984.6510000000001 269.5009999999999 985.4490000000001 269.59999999999997C986.1250000000001 269.68399999999997 986.666 269.758 987.0550000000001 269.81899999999996C987.778 269.931 988.214 269.99999999999994 988.214 270.47399999999993C988.214 270.73599999999993 988.214 270.8379999999999 984.9110000000001 273.75999999999993C985.8380000000001 278.10599999999994 985.748 278.16799999999995 985.4300000000001 278.3879999999999C985.3480000000001 278.44499999999994 985.2810000000001 278.49099999999993 985.1590000000001 278.49099999999993Z " fill="#ffffff" transform="matrix(1,0,0,1,-963,-256)"></path><path id="SvgjsPath1014" d="M968.155 265.829C968.057 265.829 967.8299999999999 265.722 967 265.271C965.916 265.904 965.842 265.85200000000003 965.762 265.797L965.762 265.797C965.6869999999999 265.744 965.574 265.665 965.906 264.50800000000004C964.996 263.699 964.996 263.66800000000006 964.996 263.59600000000006C964.996 263.46400000000006 965.125 263.4440000000001 965.319 263.41400000000004C965.4269999999999 263.39700000000005 965.577 263.37700000000007 965.766 263.355C965.987 263.32800000000003 966.2099999999999 263.30400000000003 966.327 263.291C966.848 262.171 966.898 262.171 967.003 262.171C967.1080000000001 262.171 967.158 262.171 967.6740000000001 263.294C967.791 263.30699999999996 968.0140000000001 263.332 968.2360000000001 263.359C968.4240000000001 263.383 968.5740000000001 263.40299999999996 968.6820000000001 263.41999999999996C968.8830000000002 263.45099999999996 969.0040000000001 263.46999999999997 969.0040000000001 263.602C969.0040000000001 263.67499999999995 969.0040000000001 263.703 968.0860000000001 264.515C968.3440000000002 265.722 968.3190000000001 265.739 968.2310000000001 265.8C968.2080000000001 265.81600000000003 968.1890000000001 265.829 968.1550000000001 265.829Z " fill="#ffb5c1" transform="matrix(1,0,0,1,-963,-256)"></path><path id="SvgjsPath1015" d="M994.155 284.829C994.057 284.829 993.8299999999999 284.723 993 284.271C991.916 284.904 991.842 284.85200000000003 991.762 284.797L991.762 284.797C991.6869999999999 284.744 991.574 284.665 991.906 283.50800000000004C990.996 282.699 990.996 282.66800000000006 990.996 282.59700000000004C990.996 282.46400000000006 991.125 282.444 991.319 282.41400000000004C991.4269999999999 282.39700000000005 991.577 282.37700000000007 991.766 282.355C991.987 282.32800000000003 992.2099999999999 282.30400000000003 992.327 282.29200000000003C992.848 281.17100000000005 992.897 281.17100000000005 993.003 281.17100000000005C993.1080000000001 281.17100000000005 993.158 281.17100000000005 993.6740000000001 282.29400000000004C993.791 282.307 994.0140000000001 282.33200000000005 994.2360000000001 282.35900000000004C994.4240000000001 282.38300000000004 994.5740000000001 282.403 994.6820000000001 282.42C994.8830000000002 282.451 995.0040000000001 282.471 995.0040000000001 282.60200000000003C995.0040000000001 282.675 995.0040000000001 282.70300000000003 994.0860000000001 283.51500000000004C994.3440000000002 284.72200000000004 994.3190000000001 284.73900000000003 994.2300000000001 284.80100000000004C994.2080000000001 284.81600000000003 994.1890000000001 284.82900000000006 994.1550000000001 284.82900000000006Z " fill="#ffb5c1" transform="matrix(1,0,0,1,-963,-256)"></path><path id="SvgjsPath1016" d="M980.693 287.097C980.634 287.097 980.4979999999999 287.03299999999996 980 286.762C979.35 287.142 979.305 287.111 979.258 287.078L979.258 287.078C979.212 287.04699999999997 979.144 286.99899999999997 979.344 286.30499999999995C978.798 285.81899999999996 978.798 285.80099999999993 978.798 285.7579999999999C978.798 285.67799999999994 978.875 285.66599999999994 978.991 285.6479999999999C979.056 285.6379999999999 979.146 285.6269999999999 979.259 285.6129999999999C979.392 285.59699999999987 979.5260000000001 285.5819999999999 979.596 285.5749999999999C979.909 284.90299999999985 979.939 284.90299999999985 980.002 284.90299999999985C980.0649999999999 284.90299999999985 980.0949999999999 284.90299999999985 980.405 285.57599999999985C980.475 285.58399999999983 980.6089999999999 285.5989999999999 980.741 285.6159999999999C980.854 285.6299999999999 980.944 285.6419999999999 981.009 285.6519999999999C981.13 285.6709999999999 981.202 285.68199999999985 981.202 285.76099999999985C981.202 285.80499999999984 981.202 285.82199999999983 980.652 286.30899999999986C980.806 287.03299999999984 980.791 287.04399999999987 980.738 287.07999999999987C980.725 287.08999999999986 980.714 287.09699999999987 980.6930000000001 287.09699999999987Z " fill="#ffb5c1" transform="matrix(1,0,0,1,-963,-256)"></path><path id="SvgjsPath1017" d="M996.693 272.098C996.634 272.098 996.4979999999999 272.033 996 271.762C995.35 272.142 995.305 272.111 995.257 272.078L995.257 272.078C995.212 272.04699999999997 995.1439999999999 271.99899999999997 995.3439999999999 271.30499999999995C994.7979999999999 270.81899999999996 994.7979999999999 270.80099999999993 994.7979999999999 270.7579999999999C994.7979999999999 270.67799999999994 994.8749999999999 270.66599999999994 994.9909999999999 270.6479999999999C995.0559999999999 270.6379999999999 995.1459999999998 270.6259999999999 995.2589999999999 270.6129999999999C995.3919999999999 270.59699999999987 995.526 270.5819999999999 995.5959999999999 270.5749999999999C995.9089999999999 269.9019999999999 995.9379999999999 269.90299999999985 996.0019999999998 269.9019999999999C996.0649999999998 269.90299999999985 996.0949999999998 269.90299999999985 996.4039999999999 270.57599999999985C996.4749999999999 270.58399999999983 996.6089999999999 270.5989999999999 996.7409999999999 270.61499999999984C996.8539999999999 270.6299999999998 996.9439999999998 270.6419999999998 997.0089999999999 270.6519999999998C997.1299999999999 270.6709999999998 997.2019999999999 270.6819999999998 997.2019999999999 270.7609999999998C997.2019999999999 270.8049999999998 997.2019999999999 270.8219999999998 996.6519999999999 271.3089999999998C996.8059999999999 272.0329999999998 996.7909999999999 272.0439999999998 996.7379999999999 272.0799999999998C996.7249999999999 272.0899999999998 996.713 272.0979999999998 996.693 272.0979999999998Z " fill="#ffb5c1" transform="matrix(1,0,0,1,-963,-256)"></path><path id="SvgjsPath1018" d="M977.693 259.098C977.634 259.098 977.4979999999999 259.034 977 258.762C976.35 259.142 976.305 259.111 976.257 259.078L976.257 259.078C976.212 259.04699999999997 976.1439999999999 258.99899999999997 976.3439999999999 258.304C975.7979999999999 257.81899999999996 975.7979999999999 257.801 975.7979999999999 257.758C975.7979999999999 257.678 975.8749999999999 257.666 975.9909999999999 257.64799999999997C976.0559999999999 257.638 976.1459999999998 257.626 976.2589999999999 257.61299999999994C976.3919999999999 257.5969999999999 976.526 257.58199999999994 976.5959999999999 257.57499999999993C976.9089999999999 256.90199999999993 976.9379999999999 256.9029999999999 977.0019999999998 256.90199999999993C977.0649999999998 256.9029999999999 977.0949999999998 256.9029999999999 977.4039999999999 257.5759999999999C977.4749999999999 257.5839999999999 977.6089999999999 257.59899999999993 977.7409999999999 257.61599999999993C977.8539999999999 257.62999999999994 977.9439999999998 257.64199999999994 978.0089999999999 257.65199999999993C978.1299999999999 257.67099999999994 978.2019999999999 257.6819999999999 978.2019999999999 257.7609999999999C978.2019999999999 257.8049999999999 978.2019999999999 257.8219999999999 977.6519999999999 258.3089999999999C977.8059999999999 259.0329999999999 977.7909999999999 259.0439999999999 977.7379999999999 259.0799999999999C977.7249999999999 259.0899999999999 977.7139999999999 259.0979999999999 977.693 259.0979999999999Z " fill="#ffb5c1" transform="matrix(1,0,0,1,-963,-256)"></path><path id="SvgjsPath1019" d="M967.944 281.786C967.8209999999999 281.786 967.5369999999999 281.653 966.5 281.088C965.146 281.88 965.052 281.815 964.953 281.74600000000004L964.953 281.74600000000004C964.8589999999999 281.68000000000006 964.717 281.58200000000005 965.1329999999999 280.134C963.996 279.124 963.996 279.08500000000004 963.996 278.99600000000004C963.996 278.83000000000004 964.156 278.80500000000006 964.399 278.76800000000003C964.534 278.747 964.722 278.72200000000004 964.957 278.694C965.234 278.66 965.513 278.63 965.659 278.61400000000003C966.31 277.21400000000006 966.372 277.21400000000006 966.503 277.21400000000006C966.635 277.21400000000006 966.697 277.21400000000006 967.3430000000001 278.6170000000001C967.489 278.6330000000001 967.768 278.6650000000001 968.0450000000001 278.69900000000007C968.2800000000001 278.72800000000007 968.4670000000001 278.7540000000001 968.6020000000001 278.7750000000001C968.8530000000001 278.8140000000001 969.0050000000001 278.8380000000001 969.0050000000001 279.0030000000001C969.0050000000001 279.0940000000001 969.0050000000001 279.1290000000001 967.8580000000001 280.1440000000001C968.1800000000001 281.65300000000013 968.1490000000001 281.6740000000001 968.038 281.75100000000015C968.01 281.77000000000015 967.986 281.7860000000002 967.944 281.7860000000002Z " fill="#ffb5c1" transform="matrix(1,0,0,1,-963,-256)"></path><path id="SvgjsPath1020" d="M992.944 262.786C992.8209999999999 262.786 992.5369999999999 262.653 991.5 262.088C990.146 262.88 990.052 262.815 989.953 262.74600000000004L989.953 262.74600000000004C989.8589999999999 262.68000000000006 989.717 262.58200000000005 990.1329999999999 261.134C988.996 260.124 988.996 260.08500000000004 988.996 259.995C988.996 259.83 989.156 259.805 989.399 259.767C989.534 259.747 989.722 259.722 989.957 259.693C990.234 259.65999999999997 990.513 259.63 990.659 259.614C991.31 258.21299999999997 991.372 258.214 991.503 258.214C991.635 258.214 991.697 258.214 992.3430000000001 259.617C992.489 259.63300000000004 992.768 259.665 993.0450000000001 259.699C993.2800000000001 259.728 993.4670000000001 259.754 993.6020000000001 259.77500000000003C993.8530000000001 259.814 994.0050000000001 259.838 994.0050000000001 260.00300000000004C994.0050000000001 260.09400000000005 994.0050000000001 260.129 992.8580000000001 261.14300000000003C993.1800000000001 262.653 993.1490000000001 262.67400000000004 993.038 262.75100000000003C993.01 262.77000000000004 992.986 262.78600000000006 992.944 262.78600000000006Z " fill="#ffb5c1" transform="matrix(1,0,0,1,-963,-256)"></path></svg>