<svg xmlns="http://www.w3.org/2000/svg" width="36" height="30"><path d="M22.726 22.128l-7.862.026a.4.4 0 0 1-.401-.401l.007-2.011a.407.407 0 0 1 .404-.404l5.045-.017-7.258-7.259a.402.402 0 0 1 .002-.568l1.428-1.427a.402.402 0 0 1 .569-.002l7.257 7.257.018-5.045c0-.222.181-.403.403-.404l2.012-.007a.4.4 0 0 1 .401.402l-.026 7.577-.006 1.873a.406.406 0 0 1-.403.404l-1.59.005v.001z" fill="#fff"/><path d="M23.603 6.389l-3.096.01a.156.156 0 0 1-.158-.158l.002-.792a.16.16 0 0 1 .159-.159l1.987-.007-2.858-2.858a.158.158 0 0 1 .001-.224l.562-.562a.157.157 0 0 1 .224-.001l2.858 2.858.007-1.987a.16.16 0 0 1 .159-.159l.792-.003c.088 0 .159.071.158.158l-.01 2.985-.002.737a.16.16 0 0 1-.159.159l-.626.003zM6.004 15.986l-3.871.013a.196.196 0 0 1-.197-.197l.003-.991a.201.201 0 0 1 .199-.199l2.484-.008-3.573-3.573a.198.198 0 0 1 .001-.28l.702-.703a.199.199 0 0 1 .28-.001l3.574 3.573.008-2.484c0-.109.089-.198.199-.198l.99-.004c.109 0 .198.088.197.198l-.012 3.73-.003.922a.2.2 0 0 1-.199.199l-.782.003zM34.336 24.99l-2.581.009a.131.131 0 0 1-.131-.131l.002-.66c0-.073.06-.133.133-.133l1.656-.006-2.383-2.382a.132.132 0 0 1 .001-.187l.469-.468a.131.131 0 0 1 .186-.001l2.382 2.383.006-1.657c0-.072.06-.132.133-.132l.66-.002a.13.13 0 0 1 .131.131l-.008 2.487-.002.615c0 .073-.06.132-.133.133l-.521.001zM8.336 26.991l-2.581.008a.13.13 0 0 1-.131-.131l.002-.66c0-.073.06-.133.133-.133l1.656-.006-2.382-2.382a.132.132 0 0 1 0-.187l.469-.468a.131.131 0 0 1 .186 0l2.382 2.382.006-1.656c0-.073.06-.133.132-.133l.661-.002a.13.13 0 0 1 .131.131l-.008 2.487-.002.615c0 .073-.06.132-.133.133l-.521.002zM34.235 13.595l-1.42.005a.073.073 0 0 1-.072-.073l.001-.363a.074.074 0 0 1 .073-.073l.911-.003-1.31-1.31a.074.074 0 0 1 0-.103l.258-.257a.073.073 0 0 1 .103-.001l1.31 1.31.003-.91c0-.04.033-.073.073-.073l.363-.001a.071.071 0 0 1 .072.072l-.005 1.368-.001.338c0 .04-.032.073-.072.073l-.287.001zM22.235 29.595l-1.419.004a.071.071 0 0 1-.073-.072l.001-.363c0-.04.033-.072.073-.073l.911-.003-1.31-1.31a.074.074 0 0 1 0-.103l.258-.257a.073.073 0 0 1 .103-.001l1.31 1.31.003-.91c0-.04.033-.073.073-.073l.363-.001a.071.071 0 0 1 .072.072l-.004 1.368-.002.338c0 .04-.032.073-.072.073l-.287.001zM11.235 2.595L9.816 2.6a.073.073 0 0 1-.073-.073l.001-.363c0-.04.033-.073.073-.073l.911-.003-1.31-1.31a.074.074 0 0 1 0-.103l.258-.257a.073.073 0 0 1 .103-.001l1.31 1.31.003-.91c0-.04.033-.073.073-.073l.363-.001a.071.071 0 0 1 .072.072l-.004 1.368-.002.338c0 .04-.032.073-.072.073l-.287.001z" fill="#febb8a"/></svg>