<svg xmlns:x="http://ns.adobe.com/Extensibility/1.0/" xmlns:i="http://ns.adobe.com/AdobeIllustrator/10.0/" xmlns:graph="http://ns.adobe.com/Graphs/1.0/" xmlns="http://www.w3.org/2000/svg" xmlns:xlink="http://www.w3.org/1999/xlink" version="1.1" baseProfile="tiny" id="Layer_1" x="0" y="0" viewBox="0 0 11.8 12" xml:space="preserve">
    <g i:extraneous="self">
      <path d="M9.6 0H2.2C1 0 0 1 0 2.2v7.7C0 11 1 12 2.2 12h7.4c1.2 0 2.2-1 2.2-2.2V2.2C11.8 1 10.8 0 9.6 0zM2.5 1.8c0.5 0 1 0.4 1 1 0 0.5-0.4 1-1 1 -0.5 0-1-0.4-1-1C1.5 2.2 1.9 1.8 2.5 1.8zM2.6 10.1c-0.5 0-1-0.4-1-1 0-0.5 0.4-1 1-1 0.5 0 1 0.4 1 1C3.6 9.7 3.2 10.1 2.6 10.1zM6 7C5.5 7 5 6.5 5 6c0-0.5 0.4-1 1-1 0.5 0 1 0.4 1 1C7 6.5 6.5 7 6 7zM9.2 1.8c0.5 0 1 0.4 1 1 0 0.5-0.4 1-1 1 -0.5 0-1-0.4-1-1C8.2 2.2 8.7 1.8 9.2 1.8zM9.4 10.1c-0.5 0-1-0.4-1-1 0-0.5 0.4-1 1-1 0.5 0 1 0.4 1 1C10.4 9.7 9.9 10.1 9.4 10.1z"/>
    </g>
</svg>