<?xml version="1.0" encoding="utf-8"?>
<!-- Generated by IcoMoon.io -->
<!DOCTYPE svg PUBLIC "-//W3C//DTD SVG 1.1//EN" "http://www.w3.org/Graphics/SVG/1.1/DTD/svg11.dtd">
<svg version="1.1" xmlns="http://www.w3.org/2000/svg" xmlns:xlink="http://www.w3.org/1999/xlink" width="544" height="512" viewBox="0 0 544 512">
<g id="icomoon-ignore">
</g>
<path fill="#939799" d="M197.664 397.28c-24.256 0-44.32 19.52-44.32 43.2 0 24.32 20.064 43.2 44.32 43.2s44.32-19.52 44.32-43.2c0-24.32-20.064-43.2-44.32-43.2zM380.864 397.28c-24.224 0-44.32 19.52-44.32 43.2 0 24.32 20.096 43.2 44.32 43.2 24.256 0 44.32-19.52 44.32-43.2 0-24.32-20.064-43.2-44.32-43.2zM421.184 298.72h-222.464l-29.568 40.32c0 0 233.696 0 286.912 0 6.496 0 12.416 6.4 12.416 12.16 0 5.12 0 11.52 0 16.64 0 5.76-5.92 11.52-12.416 11.52-53.216 0-292.8 0-292.8 0-81.536 0-34.848-64-34.848-64l31.872-40.96-56.128-205.76c0 0-49.28 0-63.488 0-4.736 0-11.232-6.080-11.232-11.84 0-5.44 0-11.84 0-16.96 0-5.76 6.496-11.52 11.232-11.52 21.888 0 93.056 0 93.056 0l17.728 40.32 334.72 34.88c14.816 0 28.384 16 21.888 30.4l-65.6 151.040c-2.368 8-12.992 14.4-21.28 14.4z"></path>
</svg>
