<svg xmlns:x="http://ns.adobe.com/Extensibility/1.0/" xmlns:i="http://ns.adobe.com/AdobeIllustrator/10.0/" xmlns:graph="http://ns.adobe.com/Graphs/1.0/" xmlns="http://www.w3.org/2000/svg" xmlns:xlink="http://www.w3.org/1999/xlink" version="1.1" baseProfile="tiny" id="Layer_1" x="0" y="0" viewBox="0 0 12 14" xml:space="preserve">
    <g i:extraneous="self">
      <path d="M0.8 14h10.5v-6H0.8V14zM0 4.3v3h12v-3H0zM2.8 3.4c0.4 0.3 1 0.4 1.9 0.4 0.6 0 1.9 0 2.5 0 0.9 0 1.6-0.1 1.9-0.4 0.9-0.6 1.2-1.8 0.6-2.6C9.5 0.3 8.9 0 8.3 0 7.8 0 7.4 0.1 7 0.4 6.6 0.7 6.3 1.3 6 1.9 5.8 1.3 5.4 0.7 5 0.4 4.6 0.1 4.2 0 3.8 0 3.1 0 2.6 0.3 2.2 0.8 1.6 1.6 1.9 2.8 2.8 3.4zM7.5 1C7.7 0.9 8 0.8 8.2 0.8c0.4 0 0.7 0.2 0.9 0.4 0.3 0.5 0.1 1.2-0.4 1.5C8.6 2.8 8.2 3 7.2 3 7 3 6.7 3 6.5 3 6.7 2.2 7.1 1.3 7.5 1zM2.9 1.2c0.2-0.3 0.5-0.4 0.9-0.4C4 0.8 4.3 0.9 4.5 1c0.3 0.2 0.8 1.2 1 1.9C5.3 3 5 3 4.8 3c-1 0-1.3-0.2-1.5-0.2C2.7 2.4 2.6 1.7 2.9 1.2z"/>
    </g>
</svg>