<?xml version="1.0" encoding="utf-8"?>
<!-- Generated by IcoMoon.io -->
<!DOCTYPE svg PUBLIC "-//W3C//DTD SVG 1.1//EN" "http://www.w3.org/Graphics/SVG/1.1/DTD/svg11.dtd">
<svg version="1.1" xmlns="http://www.w3.org/2000/svg" xmlns:xlink="http://www.w3.org/1999/xlink" width="1024" height="1024" viewBox="0 0 1024 1024">
<path fill="#008fd5" d="M973.823 743.056h-46.187v-184.861c0-50.993-41.429-92.39-92.365-92.39h-277.089v-184.861h46.179c25.408 0 46.187-20.82 46.187-46.195v-184.861c0-25.375-20.78-46.195-46.187-46.195h-184.724c-25.398 0-46.187 20.82-46.187 46.195v184.861c0 25.375 20.787 46.195 46.187 46.195h46.179v184.861h-277.089c-50.936 0-92.365 41.397-92.365 92.39v184.861h-46.187c-25.398 0-46.179 20.82-46.179 46.195v184.861c0 25.375 20.78 46.195 46.179 46.195h184.731c25.408 0 46.187-20.82 46.187-46.195v-184.861c0-25.375-20.78-46.195-46.187-46.195h-46.179v-184.861h277.089v184.861h-46.179c-25.398 0-46.187 20.82-46.187 46.195v184.861c0 25.375 20.787 46.195 46.187 46.195h184.724c25.408 0 46.187-20.82 46.187-46.195v-184.861c0-25.375-20.78-46.195-46.187-46.195h-46.179v-184.861h277.089v184.861h-46.17c-25.408 0-46.187 20.82-46.187 46.195v184.861c0 25.375 20.78 46.195 46.187 46.195h184.724c25.398 0 46.179-20.82 46.179-46.195v-184.861c0-25.375-20.78-46.195-46.179-46.195z"></path>
</svg>
