<svg xmlns:x="http://ns.adobe.com/Extensibility/1.0/" xmlns:i="http://ns.adobe.com/AdobeIllustrator/10.0/" xmlns:graph="http://ns.adobe.com/Graphs/1.0/" xmlns="http://www.w3.org/2000/svg" xmlns:xlink="http://www.w3.org/1999/xlink" version="1.1" baseProfile="tiny" id="Layer_1" x="0" y="0" viewBox="0 0 12 14" xml:space="preserve">
    <g i:extraneous="self">
      <path d="M3.5 0C1.6 0 0 1.6 0 3.5c0 2 1.6 3.5 3.5 3.5 1.9 0 3.5-1.6 3.5-3.5C7.1 1.6 5.5 0 3.5 0zM11.5 7.3H11l0 0c-0.3-0.8-0.8-1.6-1.5-2.1 0 0 0 0 0-0.1 -0.1-0.5 0-1 0.3-1.3 0.1-0.2 0-0.5-0.3-0.5C8.8 3.4 8.4 3.6 8.1 3.8 7.9 4 7.7 4.3 7.7 4.5 7.2 6.4 5.5 7.8 3.6 7.8c-1 0-1.9-0.3-2.6-0.9C0.7 7.4 0.6 8 0.6 8.6c0 0.3 0 0.7 0.1 1l0 0c0 0 0 0 0 0 0.1 0.3 0.2 0.6 0.4 0.9 0.2 0.4 0.5 0.9 0.9 1.4 0.6 0.6 0.7 1.3 0.7 1.7v0.1 0l0 0 0 0c0 0.2 0.1 0.3 0.3 0.3h1.8c0.2 0 0.3-0.1 0.3-0.3v-0.5c0.3 0 0.5 0 0.8 0 0.2 0 0.4 0 0.6 0v0.4c0 0.2 0.1 0.3 0.3 0.3h1.8C8.9 14 9 13.8 9 13.7v-0.5c0-0.2 0-0.8 0.6-1.3 0 0 0 0 0.1 0l0 0 0 0c0.6-0.6 1.1-1.3 1.4-2.1h0.4c0.3 0 0.6-0.3 0.6-0.6V7.9C12 7.6 11.8 7.3 11.5 7.3zM9.1 7.4C8.9 7.4 8.7 7.2 8.7 7c0-0.3 0.2-0.5 0.5-0.5 0.3 0 0.5 0.2 0.5 0.5C9.6 7.2 9.4 7.4 9.1 7.4z"/>
    </g>
</svg>