<svg xmlns:x="http://ns.adobe.com/Extensibility/1.0/" xmlns:i="http://ns.adobe.com/AdobeIllustrator/10.0/" xmlns:graph="http://ns.adobe.com/Graphs/1.0/" xmlns="http://www.w3.org/2000/svg" xmlns:xlink="http://www.w3.org/1999/xlink" version="1.1" baseProfile="tiny" id="Layer_1" x="0" y="0" viewBox="0 0 15 10" xml:space="preserve">
    <g i:extraneous="self">
      <path d="M11.7 7.3c-0.8 0-1.4 0.6-1.4 1.4 0 0.8 0.6 1.4 1.4 1.4 0.8 0 1.4-0.6 1.4-1.4C13.1 7.9 12.5 7.3 11.7 7.3zM10.8 2.7V1.4 0.9c0-0.5-0.4-0.9-0.9-0.9H0.9C0.4 0 0 0.4 0 0.9v5c0 0.5 0.4 0.9 0.9 0.9h0.9v0c0.4-0.3 0.9-0.5 1.4-0.5 1.3 0 2.3 1 2.3 2.3h3.8c0-0.9 0.6-1.7 1.4-2.1V2.7zM14.5 3.5c-0.2-0.4-0.8-0.8-1.4-0.8h-1.9v3.7c0.2 0 0.3 0 0.5 0 1.3 0 2.3 1 2.3 2.3 0.5 0 0.9-0.4 0.9-0.9V6.4 4.5L14.5 3.5zM14.3 5h-2.1V3.2h0.9c0.3 0 0.6 0.2 0.7 0.4l0.5 1V5zM3.3 7.3c-0.8 0-1.4 0.6-1.4 1.4 0 0.8 0.6 1.4 1.4 1.4 0.8 0 1.4-0.6 1.4-1.4C4.7 7.9 4.1 7.3 3.3 7.3z"/>
    </g>
</svg>