<?xml version="1.0" encoding="utf-8"?>
<!-- Generated by IcoMoon.io -->
<!DOCTYPE svg PUBLIC "-//W3C//DTD SVG 1.1//EN" "http://www.w3.org/Graphics/SVG/1.1/DTD/svg11.dtd">
<svg version="1.1" xmlns="http://www.w3.org/2000/svg" xmlns:xlink="http://www.w3.org/1999/xlink" width="1024" height="1024" viewBox="0 0 1024 1024">

<path fill="none" stroke="#e50329" stroke-width="85.3333" stroke-miterlimit="50" stroke-linecap="round" stroke-linejoin="round" d="M434.669 48h154.665c213.56 0 386.669 173.226 386.669 386.669v154.665c0 213.444-173.11 386.669-386.669 386.669h-154.665c-213.56 0-386.669-173.226-386.669-386.669v-154.665c0-213.444 173.11-386.669 386.669-386.669z"></path>
<path fill="#e50329" d="M629.75 709.591s-199.906 0.778-253.266 1.16c-7.226 0-12.992-5.8-12.992-13.143 0-17.019 0.15-47.56 0.198-64.579 0-7.342 5.8-13.143 13.027-13.143l162.553-0.778-233.861-233.546c-5.022-5.022-5.022-13.539 0.082-18.56 12.215-11.983 33.723-33.64 46.019-46.019 5.022-5.022 13.259-5.022 18.295 0l233.861 233.942 0.614-162.403c0-7.342 5.8-13.143 12.992-13.143 17.251 0 47.56-0.382 64.811-0.382 7.158 0 12.959 5.8 12.911 13.143l-0.778 243.986-0.232 60.321c0 7.342-5.8 13.143-12.992 13.143h-51.239z"></path>
</svg>
